<svg width="24" height="24" viewBox="0 0 24 24" fill="none" xmlns="http://www.w3.org/2000/svg">
<path fill-rule="evenodd" clip-rule="evenodd" d="M2.1101 1.55719C2.35827 1.05039 2.94613 0.853305 3.42311 1.11699L5.91828 2.49634C6.26511 2.68807 6.47035 3.08164 6.43945 3.49573L6.26457 5.83916L21.0979 6.99884C21.3948 7.02205 21.6653 7.18831 21.8323 7.45013C21.9994 7.71196 22.0444 8.04058 21.9547 8.34217L19.5945 16.2773C19.4665 16.7075 19.0909 17 18.6662 17H4.53228C4.2607 17 4.00147 16.8795 3.81718 16.6675C3.63289 16.4556 3.5403 16.1715 3.56177 15.8838L4.44744 4.01533L2.52441 2.95226C2.04743 2.68858 1.86193 2.06398 2.1101 1.55719ZM6.11067 7.90154L5.58609 14.9312H17.9529L19.7271 8.96609L6.11067 7.90154ZM8 20C8 21.1046 7.10457 22 6 22C4.89543 22 4 21.1046 4 20C4 18.8954 4.89543 18 6 18C7.10457 18 8 18.8954 8 20ZM16 22C17.1046 22 18 21.1046 18 20C18 18.8954 17.1046 18 16 18C14.8954 18 14 18.8954 14 20C14 21.1046 14.8954 22 16 22Z" fill="white"/>
</svg>
